<?xml version="1.0" standalone="no"?>
<!DOCTYPE svg PUBLIC "-//W3C//DTD SVG 20010904//EN"
 "http://www.w3.org/TR/2001/REC-SVG-20010904/DTD/svg10.dtd">
<svg version="1.0" xmlns="http://www.w3.org/2000/svg"
 width="100.000000pt" height="100.000000pt" viewBox="0 0 100.000000 100.000000"
 preserveAspectRatio="xMidYMid meet">

<g transform="translate(0.000000,100.000000) scale(0.100000,-0.100000)"
fill="#000000" stroke="none">
<path d="M386 944 c-225 -54 -376 -286 -338 -517 62 -367 512 -513 773 -252
329 330 18 879 -435 769z m219 -39 c312 -81 418 -473 191 -701 -241 -240 -651
-107 -709 230 -50 295 226 546 518 471z"/>
<path d="M408 769 c-27 -27 -30 -35 -25 -73 5 -38 3 -46 -21 -69 -22 -22 -38
-26 -92 -29 -50 -2 -65 -7 -65 -18 0 -12 16 -16 70 -18 69 -3 71 -2 104 32 31
32 38 35 77 29 38 -5 46 -2 73 25 41 41 42 83 2 123 -40 40 -82 39 -123 -2z
m96 -25 c31 -30 9 -84 -34 -84 -24 0 -50 26 -50 50 0 24 26 50 50 50 10 0 26
-7 34 -16z"/>
<path d="M496 521 l-60 -60 -115 -3 c-95 -2 -116 -6 -116 -18 0 -12 21 -16
119 -18 l120 -3 60 60 61 60 115 3 c94 2 115 6 115 18 0 12 -21 15 -120 18
l-120 3 -59 -60z"/>
<path d="M621 406 c-31 -32 -38 -35 -77 -29 -38 5 -46 2 -73 -25 -41 -41 -42
-83 -2 -123 40 -40 82 -39 123 2 27 27 30 35 25 73 -5 38 -3 46 21 69 22 22
38 26 92 29 50 2 65 7 65 18 0 12 -16 16 -70 18 -69 3 -71 2 -104 -32z m-57
-82 c31 -30 9 -84 -34 -84 -24 0 -50 26 -50 50 0 24 26 50 50 50 10 0 26 -7
34 -16z"/>
</g>
</svg>
